<?xml version="1.0" encoding="utf-8"?>
<!-- Generator: Adobe Illustrator 15.0.0, SVG Export Plug-In . SVG Version: 6.00 Build 0)  -->
<!DOCTYPE svg PUBLIC "-//W3C//DTD SVG 1.1//EN" "http://www.w3.org/Graphics/SVG/1.1/DTD/svg11.dtd">
<svg version="1.1" id="Capa_1" xmlns="http://www.w3.org/2000/svg" xmlns:xlink="http://www.w3.org/1999/xlink" x="0px" y="0px"
	 width="512px" height="512px" viewBox="0 0 512 512" enable-background="new 0 0 512 512" xml:space="preserve">
<g>
	<g>
		<g>
			<circle id="XMLID_30_" fill="#D44A40" cx="256" cy="255.995" r="256"/>
		</g>
		<path fill="#D44A40" d="M89.128,267.454c-0.907,44.046,29.43,86.081,71.163,99.789c39.31,13.206,87.641,3.327,113.798-30.338
			c19.099-23.589,23.438-55.035,21.371-84.415c-33.665-0.301-67.329-0.201-100.943-0.15c-0.055,11.993,0,23.939,0.05,35.932
			c20.157,0.558,40.318,0.302,60.475,0.708c-5.088,17.437-16.679,33.664-34.271,39.961c-33.965,14.969-77.305-4.586-87.992-40.217
			c-12.9-34.121,8.219-75.297,43.088-85.223c21.622-7.607,43.896,0.958,62.396,12.198c9.373-8.771,18.145-18.144,26.76-27.618
			c-21.019-17.588-48.03-28.371-75.799-26.002C134.74,162.728,87.062,213.026,89.128,267.454z"/>
		<path fill="#D44A40" d="M360.977,222.094c-0.1,10.03-0.205,20.111-0.255,30.137c-10.081,0.101-20.106,0.151-30.138,0.201
			c0,10.03,0,20.006,0,30.036c10.031,0.05,20.111,0.101,30.138,0.206c0.101,10.029,0.101,20.056,0.2,30.137
			c9.98,0,20.011-0.051,30.037,0c0.055-10.081,0.101-20.107,0.205-30.188c10.026-0.051,20.106-0.1,30.137-0.15
			c0-10.031,0-20.006,0-30.037c-10.025-0.05-20.106-0.101-30.137-0.201c-0.055-10.031-0.15-20.111-0.205-30.137
			C380.933,222.094,370.953,222.094,360.977,222.094z"/>
		<g>
			<path fill="#FFFFFF" d="M152.634,261.454c-2.066-54.428,45.607-104.726,100.091-105.379c27.769-2.368,54.784,8.415,75.799,26.002
				c-8.621,9.479-17.392,18.847-26.761,27.618c-18.5-11.24-40.774-19.805-62.396-12.198c-34.874,9.93-55.993,51.106-43.088,85.222
				c10.688,35.632,54.026,55.187,87.992,40.218c17.587-6.297,29.183-22.525,34.271-39.962c-20.157-0.401-40.318-0.151-60.475-0.708
				c-0.051-11.992-0.101-23.939-0.051-35.932c33.614-0.05,67.279-0.15,100.943,0.151c2.067,29.384-2.268,60.83-21.37,84.414
				c-26.158,33.665-74.484,43.545-113.799,30.338C182.069,347.535,151.727,305.5,152.634,261.454z"/>
		</g>
	</g>
</g>
</svg>
