<?xml version="1.0"?>
<svg xmlns="http://www.w3.org/2000/svg" height="512px" viewBox="-38 0 418 418.251" width="512px"><g><path d="m55.238281 0c-3.3125 0-6 2.6875-6 6v20.25h-23.113281c-14.351562.015625-25.984375 11.648438-26 26v340c.015625 14.355469 11.648438 25.984375 26 26h290c14.351562-.015625 25.984375-11.644531 26-26v-340c-.015625-14.351562-11.648438-25.984375-26-26h-29.035156v-20.25c0-3.3125-2.6875-6-6-6s-6 2.6875-6 6v20.25h-63.285156v-20.25c0-3.3125-2.683594-6-6-6-3.3125 0-6 2.6875-6 6v20.25h-63.277344v-20.25c0-3.3125-2.6875-6-6-6-3.316406 0-6 2.6875-6 6v20.25h-63.289063v-20.25c0-3.3125-2.683593-6-6-6zm69.289063 38.25v10.859375c-12.835938 3.042969-21.359375 15.214844-19.824219 28.316406 1.53125 13.101563 12.632813 22.980469 25.824219 22.980469 13.1875 0 24.289062-9.878906 25.820312-22.980469 1.535156-13.101562-6.988281-25.273437-19.820312-28.316406v-10.859375h63.28125v10.859375c-12.832032 3.042969-21.355469 15.214844-19.824219 28.316406 1.535156 13.101563 12.632813 22.980469 25.824219 22.980469s24.292968-9.878906 25.824218-22.980469c1.53125-13.101562-6.988281-25.273437-19.824218-28.316406v-10.859375h63.285156v10.859375c-12.835938 3.042969-21.359375 15.214844-19.824219 28.316406 1.53125 13.101563 12.632813 22.980469 25.824219 22.980469s24.289062-9.878906 25.824219-22.980469c1.53125-13.101562-6.992188-25.273437-19.824219-28.316406v-10.859375h29.03125c7.730469.007812 13.992188 6.273438 14 14v340c-.007812 7.730469-6.269531 13.992188-14 14h-290c-7.726562-.007812-13.992188-6.269531-14-14v-340c.007812-7.726562 6.273438-13.992188 14-14h23.113281v10.859375c-12.832031 3.042969-21.355469 15.214844-19.824219 28.316406 1.535157 13.101563 12.632813 22.980469 25.824219 22.980469 13.191407 0 24.292969-9.878906 25.824219-22.980469 1.535156-13.101562-6.988281-25.273437-19.824219-28.316406v-10.859375zm6 22.152344c7.730468 0 14 6.269531 14 14 0 7.730468-6.269532 14-14 14-7.734375 0-14-6.269532-14-14 .007812-7.730469 6.269531-13.992188 14-14zm75.28125 0c7.734375 0 14 6.269531 14 14 0 7.730468-6.265625 14-14 14-7.730469 0-14-6.269532-14-14 .011718-7.726563 6.269531-13.988282 13.996094-14zm75.285156 0c7.730469 0 14 6.269531 14 14 0 7.730468-6.269531 14-14 14-7.734375 0-14-6.269532-14-14 .007812-7.726563 6.269531-13.988282 13.996094-14zm-225.851562 0c7.730468 0 14 6.269531 14 14 0 7.730468-6.269532 14-14 14-7.730469 0-14-6.269532-14-14 .007812-7.726563 6.269531-13.988282 13.996093-14zm0 0" data-original="#000000" class="active-path" data-old_color="#ffffff" fill="#ffffff"/><path d="m281.125 336.25h-220c-3.3125 0-6 2.6875-6 6 0 3.316406 2.6875 6 6 6h220c3.3125 0 6-2.683594 6-6 0-3.3125-2.6875-6-6-6zm0 0" data-original="#000000" class="active-path" data-old_color="#ffffff" fill="#ffffff"/><path d="m281.125 226.320312h-220c-3.3125 0-6 2.6875-6 6s2.6875 6 6 6h220c3.3125 0 6-2.6875 6-6s-2.6875-6-6-6zm0 0" data-original="#000000" class="active-path" data-old_color="#ffffff" fill="#ffffff"/><path d="m55.125 177.351562c0 3.3125 2.6875 6 6 6h220c3.3125 0 6-2.6875 6-6s-2.6875-6-6-6h-220c-3.3125 0-6 2.6875-6 6zm0 0" data-original="#000000" class="active-path" data-old_color="#ffffff" fill="#ffffff"/><path d="m281.125 281.285156h-220c-3.3125 0-6 2.6875-6 6s2.6875 6 6 6h220c3.3125 0 6-2.6875 6-6s-2.6875-6-6-6zm0 0" data-original="#000000" class="active-path" data-old_color="#ffffff" fill="#ffffff"/></g> </svg>
