<?xml version="1.0" encoding="utf-8"?>
<!-- Generator: Adobe Illustrator 15.0.0, SVG Export Plug-In . SVG Version: 6.00 Build 0)  -->
<!DOCTYPE svg PUBLIC "-//W3C//DTD SVG 1.1//EN" "http://www.w3.org/Graphics/SVG/1.1/DTD/svg11.dtd">
<svg version="1.1" id="Capa_1" xmlns="http://www.w3.org/2000/svg" xmlns:xlink="http://www.w3.org/1999/xlink" x="0px" y="0px"
	 width="595.279px" height="595.28px" viewBox="0 123.305 595.279 595.28" enable-background="new 0 123.305 595.279 595.28"
	 xml:space="preserve">
<g>
	<g>
		<path fill="#FFFFFF" d="M426.37,123.305H168.909c-17.081,0-30.979,13.386-30.979,29.833v535.635
			c0,16.426,13.888,29.813,30.979,29.813H426.37c17.092,0,30.979-13.386,30.979-29.813V153.128
			C457.349,136.681,443.46,123.305,426.37,123.305z M252.697,169.665h89.887v6.304h-89.887
			C252.697,175.97,252.697,169.665,252.697,169.665z M297.645,687.36c-9.559,0-17.327-7.769-17.327-17.317
			c0-9.538,7.769-17.295,17.327-17.295s17.326,7.768,17.326,17.295C314.971,679.593,307.203,687.36,297.645,687.36z
			 M436.204,622.537H159.115V211.862h277.089V622.537z"/>
	</g>
</g>
<g>
	<path fill="#FFFFFF" d="M363.546,382.161c-6.91-11.838-16.282-21.21-28.12-28.119c-11.84-6.909-24.765-10.363-38.784-10.363
		c-14.018,0-26.947,3.454-38.785,10.363c-11.838,6.908-21.21,16.28-28.12,28.119c-6.91,11.839-10.364,24.768-10.364,38.785
		c0,14.018,3.455,26.944,10.363,38.785c6.909,11.837,16.282,21.209,28.12,28.119c11.839,6.908,24.767,10.362,38.785,10.362
		c14.018,0,26.946-3.454,38.785-10.362c11.838-6.907,21.21-16.282,28.118-28.119c6.908-11.839,10.361-24.768,10.361-38.785
		C373.906,406.927,370.452,393.998,363.546,382.161z M346.742,425.573l-36.418,36.421l-9.155,9.155
		c-1.207,1.206-2.716,1.81-4.528,1.81c-1.81,0-3.319-0.604-4.527-1.81l-9.155-9.155l-36.421-36.421
		c-1.206-1.209-1.81-2.716-1.81-4.528c0-1.81,0.602-3.319,1.81-4.527l9.155-9.155c1.276-1.275,2.784-1.912,4.528-1.912
		s3.254,0.637,4.528,1.912l19.014,19.013v-50.503c0-1.744,0.637-3.253,1.912-4.527c1.274-1.275,2.783-1.913,4.527-1.913h12.879
		c1.743,0,3.253,0.638,4.527,1.913c1.272,1.273,1.912,2.783,1.912,4.527v50.503l19.013-19.013c1.208-1.208,2.715-1.811,4.527-1.811
		c1.812,0,3.32,0.604,4.527,1.811l9.155,9.155c1.209,1.208,1.811,2.717,1.811,4.527
		C348.554,422.857,347.952,424.366,346.742,425.573z"/>
</g>
</svg>
